<mxfile modified="2023-01-03T15:12:16.315Z" host="app.diagrams.net" agent="5.0 (Macintosh; Intel Mac OS X 10_15_7) AppleWebKit/537.36 (KHTML, like Gecko) Chrome/108.0.0.0 Safari/537.36" etag="y8mK-IEvxhEuxyuB-cmL" version="20.8.0" type="github">
  <diagram id="f106602c-feb2-e66a-4537-3a34d633f6aa" name="Page-1">
    <mxGraphModel dx="954" dy="506" grid="1" gridSize="10" guides="1" tooltips="1" connect="1" arrows="1" fold="1" page="1" pageScale="1" pageWidth="1169" pageHeight="827" background="none" math="0" shadow="0">
      <root>
        <mxCell id="0" />
        <mxCell id="1" parent="0" />
        <mxCell id="14" value="" style="fillColor=#F6F6F6;strokeColor=none;shadow=0;gradientColor=none;fontSize=14;align=left;spacing=10;fontColor=#717171;9E9E9E;verticalAlign=top;spacingTop=-4;fontStyle=0;spacingLeft=40;html=1;" parent="1" vertex="1">
          <mxGeometry x="420" y="99" width="590" height="561" as="geometry" />
        </mxCell>
        <mxCell id="997" value="Multiple&lt;br&gt;Clients&lt;br&gt;API Requests&lt;br&gt;" style="rounded=1;absoluteArcSize=1;arcSize=2;html=1;strokeColor=none;gradientColor=none;shadow=0;dashed=0;fontSize=12;fontColor=#9E9E9E;align=left;verticalAlign=top;spacing=10;spacingTop=-4;fillColor=#F1F8E9;" parent="1" vertex="1">
          <mxGeometry x="290" y="140" width="110" height="520" as="geometry" />
        </mxCell>
        <mxCell id="818" value="Architecture: Quiz Roulette" style="fillColor=#4DA1F5;strokeColor=none;shadow=1;gradientColor=none;fontSize=14;align=left;spacingLeft=50;fontColor=#ffffff;html=1;" parent="1" vertex="1">
          <mxGeometry x="260" y="40" width="750" height="40" as="geometry" />
        </mxCell>
        <mxCell id="985" value="" style="strokeColor=#dddddd;fillColor=#ffffff;shadow=1;strokeWidth=1;rounded=1;absoluteArcSize=1;arcSize=2;labelPosition=center;verticalLabelPosition=middle;align=center;verticalAlign=bottom;spacingLeft=0;fontColor=#999999;fontSize=12;whiteSpace=wrap;spacingBottom=2;html=1;" parent="1" vertex="1">
          <mxGeometry x="320" y="200" width="70" height="70" as="geometry" />
        </mxCell>
        <mxCell id="986" value="" style="dashed=0;connectable=0;html=1;fillColor=#757575;strokeColor=none;shape=mxgraph.gcp2.mobile_devices;part=1;" parent="985" vertex="1">
          <mxGeometry x="0.5" width="50" height="36.5" relative="1" as="geometry">
            <mxPoint x="-25" y="16.75" as="offset" />
          </mxGeometry>
        </mxCell>
        <mxCell id="998" style="edgeStyle=elbowEdgeStyle;rounded=0;elbow=vertical;html=1;labelBackgroundColor=none;startFill=1;startSize=4;endArrow=blockThin;endFill=1;endSize=4;jettySize=auto;orthogonalLoop=1;strokeColor=#4284F3;strokeWidth=2;fontSize=12;fontColor=#000000;align=left;dashed=0;" parent="1" source="997" target="989" edge="1">
          <mxGeometry relative="1" as="geometry" />
        </mxCell>
        <mxCell id="987" value="" style="strokeColor=#dddddd;fillColor=#ffffff;shadow=1;strokeWidth=1;rounded=1;absoluteArcSize=1;arcSize=2;labelPosition=center;verticalLabelPosition=middle;align=center;verticalAlign=bottom;spacingLeft=0;fontColor=#999999;fontSize=12;whiteSpace=wrap;spacingBottom=2;html=1;" parent="1" vertex="1">
          <mxGeometry x="320" y="289.5" width="70" height="70" as="geometry" />
        </mxCell>
        <mxCell id="988" value="" style="dashed=0;connectable=0;html=1;fillColor=#757575;strokeColor=none;shape=mxgraph.gcp2.laptop;part=1;" parent="987" vertex="1">
          <mxGeometry x="0.5" width="50" height="33" relative="1" as="geometry">
            <mxPoint x="-25" y="18.5" as="offset" />
          </mxGeometry>
        </mxCell>
        <mxCell id="1000" style="edgeStyle=orthogonalEdgeStyle;rounded=0;elbow=vertical;html=1;labelBackgroundColor=none;startFill=1;startSize=4;endArrow=blockThin;endFill=1;endSize=4;jettySize=auto;orthogonalLoop=1;strokeColor=#4284F3;strokeWidth=2;fontSize=12;fontColor=#000000;align=left;dashed=0;" parent="1" source="989" target="993" edge="1">
          <mxGeometry relative="1" as="geometry" />
        </mxCell>
        <mxCell id="1001" style="edgeStyle=orthogonalEdgeStyle;rounded=0;elbow=vertical;html=1;labelBackgroundColor=none;startFill=1;startSize=4;endArrow=blockThin;endFill=1;endSize=4;jettySize=auto;orthogonalLoop=1;strokeColor=#4284F3;strokeWidth=2;fontSize=12;fontColor=#000000;align=left;dashed=0;" parent="1" source="989" target="995" edge="1">
          <mxGeometry relative="1" as="geometry" />
        </mxCell>
        <mxCell id="989" value="" style="strokeColor=#dddddd;fillColor=#ffffff;shadow=1;strokeWidth=1;rounded=1;absoluteArcSize=1;arcSize=2;fontSize=11;fontColor=#9E9E9E;align=center;html=1;" parent="1" vertex="1">
          <mxGeometry x="440" y="294.5" width="130" height="60" as="geometry" />
        </mxCell>
        <mxCell id="990" value="API Gateway" style="dashed=0;connectable=0;html=1;fillColor=#5184F3;strokeColor=none;shape=mxgraph.gcp2.hexIcon;prIcon=cloud_load_balancing;part=1;labelPosition=right;verticalLabelPosition=middle;align=left;verticalAlign=middle;spacingLeft=5;fontColor=#999999;fontSize=12;" parent="989" vertex="1">
          <mxGeometry y="0.5" width="44" height="39" relative="1" as="geometry">
            <mxPoint x="5" y="-19.5" as="offset" />
          </mxGeometry>
        </mxCell>
        <mxCell id="991" value="" style="strokeColor=#dddddd;fillColor=#ffffff;shadow=1;strokeWidth=1;rounded=1;absoluteArcSize=1;arcSize=2;fontSize=11;fontColor=#9E9E9E;align=center;html=1;" parent="1" vertex="1">
          <mxGeometry x="630" y="140" width="170" height="70" as="geometry" />
        </mxCell>
        <mxCell id="992" value="&lt;font color=&quot;#000000&quot;&gt;API&lt;/font&gt;&lt;br&gt;Users&lt;hr&gt;&lt;font style=&quot;font-size: 11px&quot;&gt;Spring Boot&lt;/font&gt;" style="dashed=0;connectable=0;html=1;fillColor=#5184F3;strokeColor=none;shape=mxgraph.gcp2.hexIcon;prIcon=app_engine;part=1;labelPosition=right;verticalLabelPosition=middle;align=left;verticalAlign=top;spacingLeft=5;fontColor=#999999;fontSize=12;spacingTop=-8;" parent="991" vertex="1">
          <mxGeometry width="44" height="39" relative="1" as="geometry">
            <mxPoint x="5" y="7" as="offset" />
          </mxGeometry>
        </mxCell>
        <mxCell id="993" value="" style="strokeColor=#dddddd;fillColor=#ffffff;shadow=1;strokeWidth=1;rounded=1;absoluteArcSize=1;arcSize=2;fontSize=11;fontColor=#9E9E9E;align=center;html=1;" parent="1" vertex="1">
          <mxGeometry x="630" y="240" width="170" height="70" as="geometry" />
        </mxCell>
        <mxCell id="994" value="&lt;font color=&quot;#000000&quot;&gt;API&lt;/font&gt;&lt;br&gt;Question Bank&lt;hr&gt;&lt;font style=&quot;font-size: 11px&quot;&gt;GraphQL and NodeJS&lt;/font&gt;" style="dashed=0;connectable=0;html=1;fillColor=#5184F3;strokeColor=none;shape=mxgraph.gcp2.hexIcon;prIcon=compute_engine;part=1;labelPosition=right;verticalLabelPosition=middle;align=left;verticalAlign=top;spacingLeft=5;fontColor=#999999;fontSize=12;spacingTop=-8;" parent="993" vertex="1">
          <mxGeometry width="44" height="39" relative="1" as="geometry">
            <mxPoint x="5" y="7" as="offset" />
          </mxGeometry>
        </mxCell>
        <mxCell id="995" value="" style="strokeColor=#dddddd;fillColor=#ffffff;shadow=1;strokeWidth=1;rounded=1;absoluteArcSize=1;arcSize=2;fontSize=11;fontColor=#9E9E9E;align=center;html=1;" parent="1" vertex="1">
          <mxGeometry x="630" y="340" width="170" height="70" as="geometry" />
        </mxCell>
        <mxCell id="996" value="&lt;font color=&quot;#000000&quot;&gt;API&lt;/font&gt;&lt;br&gt;Events&lt;hr&gt;&lt;span style=&quot;font-size: 11px;&quot;&gt;Spring Boot&lt;/span&gt;" style="dashed=0;connectable=0;html=1;fillColor=#5184F3;strokeColor=none;shape=mxgraph.gcp2.hexIcon;prIcon=container_engine;part=1;labelPosition=right;verticalLabelPosition=middle;align=left;verticalAlign=top;spacingLeft=5;fontColor=#999999;fontSize=12;spacingTop=-8;" parent="995" vertex="1">
          <mxGeometry width="44" height="39" relative="1" as="geometry">
            <mxPoint x="5" y="7" as="offset" />
          </mxGeometry>
        </mxCell>
        <mxCell id="-ZwU_WWWYbeiZ17hF1AD-1001" style="edgeStyle=elbowEdgeStyle;rounded=0;elbow=vertical;html=1;labelBackgroundColor=none;startFill=1;startSize=4;endArrow=blockThin;endFill=1;endSize=4;jettySize=auto;orthogonalLoop=1;strokeColor=#4284F3;strokeWidth=2;fontSize=12;fontColor=#000000;align=left;dashed=0;exitX=1;exitY=0.5;exitDx=0;exitDy=0;entryX=0.5;entryY=0;entryDx=0;entryDy=0;" parent="1" source="985" target="989" edge="1">
          <mxGeometry relative="1" as="geometry">
            <mxPoint x="410" y="334.41379310344826" as="sourcePoint" />
            <mxPoint x="450" y="334.41379310344826" as="targetPoint" />
            <Array as="points">
              <mxPoint x="410" y="235" />
            </Array>
          </mxGeometry>
        </mxCell>
        <mxCell id="-ZwU_WWWYbeiZ17hF1AD-1003" style="edgeStyle=orthogonalEdgeStyle;rounded=0;elbow=vertical;html=1;labelBackgroundColor=none;startFill=1;startSize=4;endArrow=blockThin;endFill=1;endSize=4;jettySize=auto;orthogonalLoop=1;strokeColor=#4284F3;strokeWidth=2;fontSize=12;fontColor=#000000;align=left;dashed=0;entryX=0;entryY=0.5;entryDx=0;entryDy=0;exitX=1;exitY=0.5;exitDx=0;exitDy=0;" parent="1" source="989" target="991" edge="1">
          <mxGeometry relative="1" as="geometry">
            <mxPoint x="580" y="334.48275862068965" as="sourcePoint" />
            <mxPoint x="640" y="285.0344827586207" as="targetPoint" />
          </mxGeometry>
        </mxCell>
        <mxCell id="KGBE_tiKmBMEoGUvWC_l-1001" value="" style="strokeColor=#dddddd;fillColor=#ffffff;shadow=1;strokeWidth=1;rounded=1;absoluteArcSize=1;arcSize=2;fontSize=11;fontColor=#9E9E9E;align=center;html=1;" vertex="1" parent="1">
          <mxGeometry x="440" y="561" width="170" height="70" as="geometry" />
        </mxCell>
        <mxCell id="KGBE_tiKmBMEoGUvWC_l-1002" value="&lt;font color=&quot;#000000&quot;&gt;WebSocket&lt;/font&gt;&lt;br&gt;Events-Service&lt;hr&gt;&lt;span style=&quot;font-size: 11px;&quot;&gt;Socket.io &amp;amp; NodeJS&lt;/span&gt;" style="dashed=0;connectable=0;html=1;fillColor=#5184F3;strokeColor=none;shape=mxgraph.gcp2.hexIcon;prIcon=container_engine;part=1;labelPosition=right;verticalLabelPosition=middle;align=left;verticalAlign=top;spacingLeft=5;fontColor=#999999;fontSize=12;spacingTop=-8;" vertex="1" parent="KGBE_tiKmBMEoGUvWC_l-1001">
          <mxGeometry width="44" height="39" relative="1" as="geometry">
            <mxPoint x="5" y="7" as="offset" />
          </mxGeometry>
        </mxCell>
        <mxCell id="KGBE_tiKmBMEoGUvWC_l-1003" value="" style="strokeColor=#dddddd;fillColor=#ffffff;shadow=1;strokeWidth=1;rounded=1;absoluteArcSize=1;arcSize=2;labelPosition=center;verticalLabelPosition=middle;align=center;verticalAlign=bottom;spacingLeft=0;fontColor=#999999;fontSize=12;whiteSpace=wrap;spacingBottom=2;html=1;" vertex="1" parent="1">
          <mxGeometry x="300" y="560" width="90" height="70" as="geometry" />
        </mxCell>
        <mxCell id="KGBE_tiKmBMEoGUvWC_l-1004" value="&lt;font style=&quot;font-size: 8px;&quot;&gt;ReactJS&lt;/font&gt;" style="dashed=0;connectable=0;html=1;fillColor=#757575;strokeColor=none;shape=mxgraph.gcp2.laptop;part=1;" vertex="1" parent="KGBE_tiKmBMEoGUvWC_l-1003">
          <mxGeometry x="0.5" width="50" height="33" relative="1" as="geometry">
            <mxPoint x="-25" y="18.5" as="offset" />
          </mxGeometry>
        </mxCell>
        <mxCell id="KGBE_tiKmBMEoGUvWC_l-1005" style="edgeStyle=elbowEdgeStyle;rounded=0;elbow=vertical;html=1;labelBackgroundColor=none;startFill=1;startSize=4;endArrow=blockThin;endFill=1;endSize=4;jettySize=auto;orthogonalLoop=1;strokeColor=#4284F3;strokeWidth=2;fontSize=12;fontColor=#000000;align=left;dashed=0;entryX=0.25;entryY=1;entryDx=0;entryDy=0;" edge="1" parent="1" source="KGBE_tiKmBMEoGUvWC_l-1003" target="989">
          <mxGeometry relative="1" as="geometry">
            <mxPoint x="410" y="335" as="sourcePoint" />
            <mxPoint x="450" y="335" as="targetPoint" />
          </mxGeometry>
        </mxCell>
        <mxCell id="KGBE_tiKmBMEoGUvWC_l-1010" style="edgeStyle=elbowEdgeStyle;rounded=0;elbow=vertical;html=1;labelBackgroundColor=none;startFill=1;startSize=4;endArrow=blockThin;endFill=1;endSize=4;jettySize=auto;orthogonalLoop=1;strokeColor=#4284F3;strokeWidth=2;fontSize=12;fontColor=#000000;align=left;dashed=0;entryX=0;entryY=0.5;entryDx=0;entryDy=0;exitX=1;exitY=0.5;exitDx=0;exitDy=0;" edge="1" parent="1" source="KGBE_tiKmBMEoGUvWC_l-1003" target="KGBE_tiKmBMEoGUvWC_l-1001">
          <mxGeometry relative="1" as="geometry">
            <mxPoint x="410" y="335" as="sourcePoint" />
            <mxPoint x="450" y="335" as="targetPoint" />
            <Array as="points">
              <mxPoint x="450" y="595" />
            </Array>
          </mxGeometry>
        </mxCell>
        <mxCell id="KGBE_tiKmBMEoGUvWC_l-1011" value="" style="strokeColor=#dddddd;fillColor=#ffffff;shadow=1;strokeWidth=1;rounded=1;absoluteArcSize=1;arcSize=2;fontSize=11;fontColor=#9E9E9E;align=center;html=1;" vertex="1" parent="1">
          <mxGeometry x="630" y="430" width="170" height="70" as="geometry" />
        </mxCell>
        <mxCell id="KGBE_tiKmBMEoGUvWC_l-1012" value="&lt;font color=&quot;#000000&quot;&gt;API&lt;/font&gt;&lt;br&gt;Legacy Service&lt;hr&gt;&lt;span style=&quot;font-size: 11px;&quot;&gt;Spring Boot&lt;/span&gt;" style="dashed=0;connectable=0;html=1;fillColor=#5184F3;strokeColor=none;shape=mxgraph.gcp2.hexIcon;prIcon=container_engine;part=1;labelPosition=right;verticalLabelPosition=middle;align=left;verticalAlign=top;spacingLeft=5;fontColor=#999999;fontSize=12;spacingTop=-8;" vertex="1" parent="KGBE_tiKmBMEoGUvWC_l-1011">
          <mxGeometry width="44" height="39" relative="1" as="geometry">
            <mxPoint x="5" y="7" as="offset" />
          </mxGeometry>
        </mxCell>
        <mxCell id="KGBE_tiKmBMEoGUvWC_l-1013" style="edgeStyle=orthogonalEdgeStyle;rounded=0;elbow=vertical;html=1;labelBackgroundColor=none;startFill=1;startSize=4;endArrow=blockThin;endFill=1;endSize=4;jettySize=auto;orthogonalLoop=1;strokeColor=#4284F3;strokeWidth=2;fontSize=12;fontColor=#000000;align=left;dashed=0;entryX=1;entryY=0.5;entryDx=0;entryDy=0;exitX=1;exitY=0.25;exitDx=0;exitDy=0;" edge="1" parent="1" source="KGBE_tiKmBMEoGUvWC_l-1011" target="991">
          <mxGeometry relative="1" as="geometry">
            <mxPoint x="580" y="334.5" as="sourcePoint" />
            <mxPoint x="640" y="285" as="targetPoint" />
          </mxGeometry>
        </mxCell>
        <mxCell id="KGBE_tiKmBMEoGUvWC_l-1014" style="edgeStyle=orthogonalEdgeStyle;rounded=0;elbow=vertical;html=1;labelBackgroundColor=none;startFill=1;startSize=4;endArrow=blockThin;endFill=1;endSize=4;jettySize=auto;orthogonalLoop=1;strokeColor=#4284F3;strokeWidth=2;fontSize=12;fontColor=#000000;align=left;dashed=0;entryX=1;entryY=0.5;entryDx=0;entryDy=0;" edge="1" parent="1" target="993">
          <mxGeometry relative="1" as="geometry">
            <mxPoint x="800" y="490" as="sourcePoint" />
            <mxPoint x="810" y="280" as="targetPoint" />
            <Array as="points">
              <mxPoint x="830" y="490" />
              <mxPoint x="830" y="275" />
            </Array>
          </mxGeometry>
        </mxCell>
        <mxCell id="KGBE_tiKmBMEoGUvWC_l-1016" value="" style="edgeStyle=orthogonalEdgeStyle;rounded=0;elbow=vertical;html=1;labelBackgroundColor=none;startFill=1;startSize=4;endArrow=blockThin;endFill=1;endSize=4;jettySize=auto;orthogonalLoop=1;strokeColor=#4284F3;strokeWidth=2;fontSize=12;fontColor=#000000;align=left;dashed=0;entryX=0;entryY=0.5;entryDx=0;entryDy=0;" edge="1" parent="1" target="KGBE_tiKmBMEoGUvWC_l-1011">
          <mxGeometry x="0.0582" relative="1" as="geometry">
            <mxPoint x="580" y="334.5" as="sourcePoint" />
            <mxPoint x="640" y="385" as="targetPoint" />
            <Array as="points">
              <mxPoint x="590" y="335" />
              <mxPoint x="590" y="465" />
            </Array>
            <mxPoint as="offset" />
          </mxGeometry>
        </mxCell>
      </root>
    </mxGraphModel>
  </diagram>
</mxfile>
